# MagicaVoxel @ Ephtracy

# group
o 

# material
mtllib PlayButton.mtl
usemtl palette

# normals
vn -1 0 0
vn 1 0 0
vn 0 0 1
vn 0 0 -1
vn 0 -1 0
vn 0 1 0

# texcoords
vt 0.00195313 0.5
vt 0.173828 0.5
vt 0.767578 0.5
vt 0.958984 0.5
vt 0.986328 0.5

# verts
v -5.7 -3.3 0.2
v -5.7 -3.3 -0.3
v -5.7 -1.2 0.2
v -5.7 -1.2 -0.3
v -5.6 -3.5 0.2
v -5.6 -3.5 -0.3
v -5.6 -3.3 0.2
v -5.6 -3.3 -0.3
v -5.6 -1.2 0.2
v -5.6 -1.2 -0.3
v -5.6 -1 0.2
v -5.6 -1 -0.3
v -5.5 -3.6 0.2
v -5.5 -3.6 -0.3
v -5.5 -3.5 0.2
v -5.5 -3.5 -0.3
v -5.5 -1 0.2
v -5.5 -1 -0.3
v -5.5 -0.9 0.2
v -5.5 -0.9 -0.3
v -5.3 -3.7 0.2
v -5.3 -3.7 -0.3
v -5.3 -3.6 0.2
v -5.3 -3.6 -0.3
v -5.3 -0.9 0.2
v -5.3 -0.9 -0.3
v -5.3 -0.8 0.2
v -5.3 -0.8 -0.3
v -0.9 -3.7 0.2
v -0.9 -3.7 -0.3
v -0.9 -3.6 0.2
v -0.9 -3.6 -0.3
v -0.9 -0.9 0.2
v -0.9 -0.9 -0.3
v -0.9 -0.8 0.2
v -0.9 -0.8 -0.3
v -0.7 -3.6 0.2
v -0.7 -3.6 -0.3
v -0.7 -3.5 0.2
v -0.7 -3.5 -0.3
v -0.7 -1 0.2
v -0.7 -1 -0.3
v -0.7 -0.9 0.2
v -0.7 -0.9 -0.3
v -0.6 -3.5 0.2
v -0.6 -3.5 -0.3
v -0.6 -3.3 0.2
v -0.6 -3.3 -0.3
v -0.6 -1.2 0.2
v -0.6 -1.2 -0.3
v -0.6 -1 0.2
v -0.6 -1 -0.3
v -0.5 -3.3 0.2
v -0.5 -3.3 -0.3
v -0.5 -1.2 0.2
v -0.5 -1.2 -0.3
v -5.7 -3.3 0.2
v -5.7 -1.2 0.2
v -5.6 -3.5 0.2
v -5.6 -3.3 0.2
v -5.6 -2.2 0.2
v -5.6 -1.2 0.2
v -5.6 -1 0.2
v -5.5 -3.6 0.2
v -5.5 -3.5 0.2
v -5.5 -3.3 0.2
v -5.5 -1.2 0.2
v -5.5 -1 0.2
v -5.5 -0.9 0.2
v -5.3 -3.7 0.2
v -5.3 -3.6 0.2
v -5.3 -3.5 0.2
v -5.3 -1 0.2
v -5.3 -0.9 0.2
v -5.3 -0.8 0.2
v -3.4 -2.8 0.2
v -3.4 -2.2 0.2
v -3.4 -1.6 0.2
v -3.2 -2.8 0.2
v -3.2 -2.7 0.2
v -3.2 -1.7 0.2
v -3.2 -1.6 0.2
v -3.1 -2.7 0.2
v -3.1 -2.6 0.2
v -3.1 -1.8 0.2
v -3.1 -1.7 0.2
v -3 -2.6 0.2
v -3 -2.5 0.2
v -3 -1.9 0.2
v -3 -1.8 0.2
v -2.9 -2.5 0.2
v -2.9 -2.4 0.2
v -2.9 -2 0.2
v -2.9 -1.9 0.2
v -2.8 -2.4 0.2
v -2.8 -2.3 0.2
v -2.8 -2.1 0.2
v -2.8 -2 0.2
v -2.7 -2.3 0.2
v -2.7 -2.2 0.2
v -2.7 -2.1 0.2
v -0.9 -3.7 0.2
v -0.9 -3.6 0.2
v -0.9 -3.5 0.2
v -0.9 -1 0.2
v -0.9 -0.9 0.2
v -0.9 -0.8 0.2
v -0.7 -3.6 0.2
v -0.7 -3.5 0.2
v -0.7 -3.3 0.2
v -0.7 -1.2 0.2
v -0.7 -1 0.2
v -0.7 -0.9 0.2
v -0.6 -3.5 0.2
v -0.6 -3.3 0.2
v -0.6 -2.2 0.2
v -0.6 -1.2 0.2
v -0.6 -1 0.2
v -0.5 -3.3 0.2
v -0.5 -1.2 0.2
v -5.7 -3.3 -0.3
v -5.7 -1.2 -0.3
v -5.6 -3.5 -0.3
v -5.6 -3.3 -0.3
v -5.6 -2.2 -0.3
v -5.6 -1.2 -0.3
v -5.6 -1 -0.3
v -5.5 -3.6 -0.3
v -5.5 -3.5 -0.3
v -5.5 -3.3 -0.3
v -5.5 -1.2 -0.3
v -5.5 -1 -0.3
v -5.5 -0.9 -0.3
v -5.3 -3.7 -0.3
v -5.3 -3.6 -0.3
v -5.3 -3.5 -0.3
v -5.3 -1 -0.3
v -5.3 -0.9 -0.3
v -5.3 -0.8 -0.3
v -3.4 -2.8 -0.3
v -3.4 -2.2 -0.3
v -3.4 -1.6 -0.3
v -3.2 -2.8 -0.3
v -3.2 -2.7 -0.3
v -3.2 -1.7 -0.3
v -3.2 -1.6 -0.3
v -3.1 -2.7 -0.3
v -3.1 -2.6 -0.3
v -3.1 -1.8 -0.3
v -3.1 -1.7 -0.3
v -3 -2.6 -0.3
v -3 -2.5 -0.3
v -3 -1.9 -0.3
v -3 -1.8 -0.3
v -2.9 -2.5 -0.3
v -2.9 -2.4 -0.3
v -2.9 -2 -0.3
v -2.9 -1.9 -0.3
v -2.8 -2.4 -0.3
v -2.8 -2.3 -0.3
v -2.8 -2.1 -0.3
v -2.8 -2 -0.3
v -2.7 -2.3 -0.3
v -2.7 -2.2 -0.3
v -2.7 -2.1 -0.3
v -0.9 -3.7 -0.3
v -0.9 -3.6 -0.3
v -0.9 -3.5 -0.3
v -0.9 -1 -0.3
v -0.9 -0.9 -0.3
v -0.9 -0.8 -0.3
v -0.7 -3.6 -0.3
v -0.7 -3.5 -0.3
v -0.7 -3.3 -0.3
v -0.7 -1.2 -0.3
v -0.7 -1 -0.3
v -0.7 -0.9 -0.3
v -0.6 -3.5 -0.3
v -0.6 -3.3 -0.3
v -0.6 -2.2 -0.3
v -0.6 -1.2 -0.3
v -0.6 -1 -0.3
v -0.5 -3.3 -0.3
v -0.5 -1.2 -0.3
v -5.3 -3.7 0.2
v -0.9 -3.7 0.2
v -5.3 -3.7 -0.3
v -0.9 -3.7 -0.3
v -5.5 -3.6 0.2
v -5.3 -3.6 0.2
v -0.9 -3.6 0.2
v -0.7 -3.6 0.2
v -5.5 -3.6 -0.3
v -5.3 -3.6 -0.3
v -0.9 -3.6 -0.3
v -0.7 -3.6 -0.3
v -5.6 -3.5 0.2
v -5.5 -3.5 0.2
v -0.7 -3.5 0.2
v -0.6 -3.5 0.2
v -5.6 -3.5 -0.3
v -5.5 -3.5 -0.3
v -0.7 -3.5 -0.3
v -0.6 -3.5 -0.3
v -5.7 -3.3 0.2
v -5.6 -3.3 0.2
v -0.6 -3.3 0.2
v -0.5 -3.3 0.2
v -5.7 -3.3 -0.3
v -5.6 -3.3 -0.3
v -0.6 -3.3 -0.3
v -0.5 -3.3 -0.3
v -5.7 -1.2 0.2
v -5.6 -1.2 0.2
v -0.6 -1.2 0.2
v -0.5 -1.2 0.2
v -5.7 -1.2 -0.3
v -5.6 -1.2 -0.3
v -0.6 -1.2 -0.3
v -0.5 -1.2 -0.3
v -5.6 -1 0.2
v -5.5 -1 0.2
v -0.7 -1 0.2
v -0.6 -1 0.2
v -5.6 -1 -0.3
v -5.5 -1 -0.3
v -0.7 -1 -0.3
v -0.6 -1 -0.3
v -5.5 -0.9 0.2
v -5.3 -0.9 0.2
v -0.9 -0.9 0.2
v -0.7 -0.9 0.2
v -5.5 -0.9 -0.3
v -5.3 -0.9 -0.3
v -0.9 -0.9 -0.3
v -0.7 -0.9 -0.3
v -5.3 -0.8 0.2
v -0.9 -0.8 0.2
v -5.3 -0.8 -0.3
v -0.9 -0.8 -0.3

# faces
f 3/5/1 2/5/1 1/5/1
f 4/5/1 2/5/1 3/5/1
f 7/5/1 6/5/1 5/5/1
f 8/5/1 6/5/1 7/5/1
f 11/5/1 10/5/1 9/5/1
f 12/5/1 10/5/1 11/5/1
f 15/5/1 14/5/1 13/5/1
f 16/5/1 14/5/1 15/5/1
f 19/5/1 18/5/1 17/5/1
f 20/5/1 18/5/1 19/5/1
f 23/5/1 22/5/1 21/5/1
f 24/5/1 22/5/1 23/5/1
f 27/5/1 26/5/1 25/5/1
f 28/5/1 26/5/1 27/5/1
f 29/5/2 30/5/2 31/5/2
f 31/5/2 30/5/2 32/5/2
f 33/5/2 34/5/2 35/5/2
f 35/5/2 34/5/2 36/5/2
f 37/5/2 38/5/2 39/5/2
f 39/5/2 38/5/2 40/5/2
f 41/5/2 42/5/2 43/5/2
f 43/5/2 42/5/2 44/5/2
f 45/5/2 46/5/2 47/5/2
f 47/5/2 46/5/2 48/5/2
f 49/5/2 50/5/2 51/5/2
f 51/5/2 50/5/2 52/5/2
f 53/5/2 54/5/2 55/5/2
f 55/5/2 54/5/2 56/5/2
f 60/5/3 58/5/3 57/5/3
f 61/5/3 58/5/3 60/5/3
f 62/5/3 58/5/3 61/5/3
f 65/5/3 60/5/3 59/5/3
f 66/4/3 61/4/3 60/4/3
f 66/5/3 60/5/3 65/5/3
f 67/5/3 63/5/3 62/5/3
f 67/1/3 62/1/3 61/1/3
f 68/5/3 63/5/3 67/5/3
f 71/5/3 65/5/3 64/5/3
f 72/4/3 66/4/3 65/4/3
f 72/5/3 65/5/3 71/5/3
f 73/5/3 69/5/3 68/5/3
f 73/1/3 68/1/3 67/1/3
f 74/5/3 69/5/3 73/5/3
f 76/4/3 61/4/3 66/4/3
f 76/4/3 66/4/3 72/4/3
f 76/4/3 72/4/3 71/4/3
f 77/1/3 74/1/3 73/1/3
f 77/4/3 61/4/3 76/4/3
f 77/1/3 67/1/3 61/1/3
f 77/1/3 73/1/3 67/1/3
f 78/1/3 74/1/3 77/1/3
f 79/4/3 76/4/3 71/4/3
f 79/3/3 77/3/3 76/3/3
f 79/3/3 78/3/3 77/3/3
f 80/3/3 78/3/3 79/3/3
f 81/3/3 78/3/3 80/3/3
f 82/1/3 74/1/3 78/1/3
f 82/3/3 78/3/3 81/3/3
f 83/3/3 81/3/3 80/3/3
f 83/4/3 80/4/3 79/4/3
f 84/3/3 81/3/3 83/3/3
f 85/3/3 81/3/3 84/3/3
f 86/1/3 82/1/3 81/1/3
f 86/3/3 81/3/3 85/3/3
f 87/3/3 85/3/3 84/3/3
f 87/4/3 84/4/3 83/4/3
f 88/3/3 85/3/3 87/3/3
f 89/3/3 85/3/3 88/3/3
f 90/1/3 86/1/3 85/1/3
f 90/3/3 85/3/3 89/3/3
f 91/3/3 89/3/3 88/3/3
f 91/4/3 88/4/3 87/4/3
f 92/3/3 89/3/3 91/3/3
f 93/3/3 89/3/3 92/3/3
f 94/1/3 90/1/3 89/1/3
f 94/3/3 89/3/3 93/3/3
f 95/3/3 93/3/3 92/3/3
f 95/4/3 92/4/3 91/4/3
f 96/3/3 93/3/3 95/3/3
f 97/3/3 93/3/3 96/3/3
f 98/1/3 94/1/3 93/1/3
f 98/3/3 93/3/3 97/3/3
f 99/3/3 97/3/3 96/3/3
f 99/4/3 96/4/3 95/4/3
f 100/3/3 97/3/3 99/3/3
f 101/1/3 98/1/3 97/1/3
f 101/3/3 97/3/3 100/3/3
f 102/5/3 71/5/3 70/5/3
f 103/4/3 79/4/3 71/4/3
f 103/5/3 71/5/3 102/5/3
f 103/4/3 83/4/3 79/4/3
f 103/4/3 87/4/3 83/4/3
f 103/4/3 99/4/3 95/4/3
f 103/4/3 100/4/3 99/4/3
f 103/4/3 95/4/3 91/4/3
f 103/4/3 91/4/3 87/4/3
f 104/4/3 100/4/3 103/4/3
f 105/1/3 74/1/3 82/1/3
f 105/1/3 98/1/3 101/1/3
f 105/1/3 82/1/3 86/1/3
f 105/1/3 101/1/3 100/1/3
f 105/1/3 90/1/3 94/1/3
f 105/1/3 94/1/3 98/1/3
f 105/1/3 86/1/3 90/1/3
f 106/5/3 75/5/3 74/5/3
f 106/1/3 74/1/3 105/1/3
f 107/5/3 75/5/3 106/5/3
f 108/5/3 104/5/3 103/5/3
f 109/4/3 100/4/3 104/4/3
f 109/5/3 104/5/3 108/5/3
f 110/4/3 100/4/3 109/4/3
f 111/1/3 105/1/3 100/1/3
f 112/5/3 106/5/3 105/5/3
f 112/1/3 105/1/3 111/1/3
f 113/5/3 106/5/3 112/5/3
f 114/5/3 110/5/3 109/5/3
f 115/4/3 100/4/3 110/4/3
f 115/5/3 110/5/3 114/5/3
f 116/1/3 111/1/3 100/1/3
f 116/4/3 100/4/3 115/4/3
f 117/5/3 112/5/3 111/5/3
f 117/1/3 111/1/3 116/1/3
f 118/5/3 112/5/3 117/5/3
f 119/5/3 116/5/3 115/5/3
f 119/5/3 117/5/3 116/5/3
f 120/5/3 117/5/3 119/5/3
f 121/5/4 122/5/4 124/5/4
f 124/5/4 122/5/4 125/5/4
f 125/5/4 122/5/4 126/5/4
f 123/5/4 124/5/4 129/5/4
f 124/4/4 125/4/4 130/4/4
f 129/5/4 124/5/4 130/5/4
f 126/5/4 127/5/4 131/5/4
f 125/1/4 126/1/4 131/1/4
f 131/5/4 127/5/4 132/5/4
f 128/5/4 129/5/4 135/5/4
f 129/4/4 130/4/4 136/4/4
f 135/5/4 129/5/4 136/5/4
f 132/5/4 133/5/4 137/5/4
f 131/1/4 132/1/4 137/1/4
f 137/5/4 133/5/4 138/5/4
f 130/4/4 125/4/4 140/4/4
f 136/4/4 130/4/4 140/4/4
f 135/4/4 136/4/4 140/4/4
f 137/1/4 138/1/4 141/1/4
f 140/4/4 125/4/4 141/4/4
f 125/1/4 131/1/4 141/1/4
f 131/1/4 137/1/4 141/1/4
f 141/1/4 138/1/4 142/1/4
f 135/4/4 140/4/4 143/4/4
f 140/3/4 141/3/4 143/3/4
f 141/3/4 142/3/4 143/3/4
f 143/3/4 142/3/4 144/3/4
f 144/3/4 142/3/4 145/3/4
f 142/1/4 138/1/4 146/1/4
f 145/3/4 142/3/4 146/3/4
f 144/3/4 145/3/4 147/3/4
f 143/4/4 144/4/4 147/4/4
f 147/3/4 145/3/4 148/3/4
f 148/3/4 145/3/4 149/3/4
f 145/1/4 146/1/4 150/1/4
f 149/3/4 145/3/4 150/3/4
f 148/3/4 149/3/4 151/3/4
f 147/4/4 148/4/4 151/4/4
f 151/3/4 149/3/4 152/3/4
f 152/3/4 149/3/4 153/3/4
f 149/1/4 150/1/4 154/1/4
f 153/3/4 149/3/4 154/3/4
f 152/3/4 153/3/4 155/3/4
f 151/4/4 152/4/4 155/4/4
f 155/3/4 153/3/4 156/3/4
f 156/3/4 153/3/4 157/3/4
f 153/1/4 154/1/4 158/1/4
f 157/3/4 153/3/4 158/3/4
f 156/3/4 157/3/4 159/3/4
f 155/4/4 156/4/4 159/4/4
f 159/3/4 157/3/4 160/3/4
f 160/3/4 157/3/4 161/3/4
f 157/1/4 158/1/4 162/1/4
f 161/3/4 157/3/4 162/3/4
f 160/3/4 161/3/4 163/3/4
f 159/4/4 160/4/4 163/4/4
f 163/3/4 161/3/4 164/3/4
f 161/1/4 162/1/4 165/1/4
f 164/3/4 161/3/4 165/3/4
f 134/5/4 135/5/4 166/5/4
f 135/4/4 143/4/4 167/4/4
f 166/5/4 135/5/4 167/5/4
f 143/4/4 147/4/4 167/4/4
f 147/4/4 151/4/4 167/4/4
f 159/4/4 163/4/4 167/4/4
f 163/4/4 164/4/4 167/4/4
f 155/4/4 159/4/4 167/4/4
f 151/4/4 155/4/4 167/4/4
f 167/4/4 164/4/4 168/4/4
f 146/1/4 138/1/4 169/1/4
f 165/1/4 162/1/4 169/1/4
f 150/1/4 146/1/4 169/1/4
f 164/1/4 165/1/4 169/1/4
f 158/1/4 154/1/4 169/1/4
f 162/1/4 158/1/4 169/1/4
f 154/1/4 150/1/4 169/1/4
f 138/5/4 139/5/4 170/5/4
f 169/1/4 138/1/4 170/1/4
f 170/5/4 139/5/4 171/5/4
f 167/5/4 168/5/4 172/5/4
f 168/4/4 164/4/4 173/4/4
f 172/5/4 168/5/4 173/5/4
f 173/4/4 164/4/4 174/4/4
f 164/1/4 169/1/4 175/1/4
f 169/5/4 170/5/4 176/5/4
f 175/1/4 169/1/4 176/1/4
f 176/5/4 170/5/4 177/5/4
f 173/5/4 174/5/4 178/5/4
f 174/4/4 164/4/4 179/4/4
f 178/5/4 174/5/4 179/5/4
f 164/1/4 175/1/4 180/1/4
f 179/4/4 164/4/4 180/4/4
f 175/5/4 176/5/4 181/5/4
f 180/1/4 175/1/4 181/1/4
f 181/5/4 176/5/4 182/5/4
f 179/5/4 180/5/4 183/5/4
f 180/5/4 181/5/4 183/5/4
f 183/5/4 181/5/4 184/5/4
f 187/5/5 186/5/5 185/5/5
f 188/5/5 186/5/5 187/5/5
f 193/5/5 190/5/5 189/5/5
f 194/5/5 190/5/5 193/5/5
f 195/5/5 192/5/5 191/5/5
f 196/5/5 192/5/5 195/5/5
f 201/5/5 198/5/5 197/5/5
f 202/5/5 198/5/5 201/5/5
f 203/5/5 200/5/5 199/5/5
f 204/5/5 200/5/5 203/5/5
f 209/5/5 206/5/5 205/5/5
f 210/5/5 206/5/5 209/5/5
f 211/5/5 208/5/5 207/5/5
f 212/5/5 208/5/5 211/5/5
f 213/5/6 214/5/6 217/5/6
f 217/5/6 214/5/6 218/5/6
f 215/5/6 216/5/6 219/5/6
f 219/5/6 216/5/6 220/5/6
f 221/5/6 222/5/6 225/5/6
f 225/5/6 222/5/6 226/5/6
f 223/5/6 224/5/6 227/5/6
f 227/5/6 224/5/6 228/5/6
f 229/5/6 230/5/6 233/5/6
f 233/5/6 230/5/6 234/5/6
f 231/5/6 232/5/6 235/5/6
f 235/5/6 232/5/6 236/5/6
f 237/5/6 238/5/6 239/5/6
f 239/5/6 238/5/6 240/5/6
